# xmcd
#
# Track frame offsets:
#  150
#  11517
#  20887
#  31377
#  41292
#  50972
#  61125
#  73852
#  83405
#  95002
#
# Disc length: 1383 seconds
#
# Revision: 0
# Processed by: cddbd v1.4PL0 Copyright (c) Steve Scherf et al.
# Submitted via: AltoMP3_Maker 3.0
#
DISCID=8005650a
DTITLE=Sonny James - Lassoes 'n Spurs
DYEAR=1900
DGENRE=
TTITLE0=Young love
TTITLE1=Listen To My Heart
TTITLE2=Dance Her By Me (One More Time)
TTITLE3=Innocent Angel
TTITLE4=Broken Wings
TTITLE5=Magnetism
TTITLE6=Apache
TTITLE7=The Day's Not Over Yet
TTITLE8=No Lana
TTITLE9=Time's Running Backwards For Me
EXTD=
EXTT0=
EXTT1=
EXTT2=
EXTT3=
EXTT4=
EXTT5=
EXTT6=
EXTT7=
EXTT8=
EXTT9=
PLAYORDER=
